<?xml version="1.0" encoding="utf-8"?>
<!-- Generator: Adobe Illustrator 25.0.0, SVG Export Plug-In . SVG Version: 6.00 Build 0)  -->
<svg version="1.1" id="Layer_1" xmlns="http://www.w3.org/2000/svg" xmlns:xlink="http://www.w3.org/1999/xlink" x="0px" y="0px"
	 viewBox="0 0 567.1 396.8" style="enable-background:new 0 0 567.1 396.8;" xml:space="preserve">
<style type="text/css">
	.st0{fill:#FFFFFF;}
	.st1{fill:#089BD8;}
	.st2{fill:#0F9CD8;}
	.st3{fill:#149ED9;}
</style>
<g>
	<path class="st0" d="M0,245.1c0-5.6,0-11.1,0-16.7c0.2-0.5,0.6-0.9,0.6-1.4c0.4-2.7,0.6-5.5,1.2-8.3C6.5,195.2,18.1,175.8,37,161
		c3.3-2.6,6.8-4.9,10.3-7.3c0-0.2,0-0.4-0.1-0.6c-8.6-20.5-10.8-41.7-6.8-63.4C44.3,68.2,54,49.6,69.1,34
		C87.3,15.3,109.3,4.2,135.3,1c1.5-0.2,2.9-0.7,4.3-1c5.8,0,11.5,0,17.3,0c0.7,0.2,1.3,0.5,2,0.7c5.9,1.1,12,1.8,17.8,3.3
		c20.9,5.4,38.6,16.2,53.2,32.1c2.1,2.3,4.1,4.7,6.2,7.1c23.8-23.2,52-34,85-29.6c33,4.4,57.3,22.3,74.4,50.7
		c25.4-10.9,51.6-13.3,78.3-6.8c26.9,6.6,49,21,66.3,42.6c30.9,38.6,35.1,92.1,12.7,134.6c-12.6,23.9-31.1,42-55.5,53.7
		c-24.4,11.8-50,14.6-76.6,9.7c-11.9,20.2-28.7,34.5-51.1,41.5c-22.5,7.1-44.5,5.2-65.9-4.7c-0.4,0.8-0.8,1.5-1.1,2.2
		c-6.2,13.6-14.9,25.3-26.2,35c-14,12-30,19.8-48.2,23.1c-2.5,0.4-5,1-7.4,1.5c-7.5,0-15,0-22.5,0c-0.5-0.2-1-0.5-1.5-0.6
		c-4.3-0.9-8.7-1.4-13-2.6c-32.6-9.3-55.6-29.6-68.8-60.9c-0.3-0.8-0.7-1.5-1-2.2c-0.5,0-0.7,0-1,0c-0.6,0.1-1.1,0.2-1.7,0.3
		c-12,2.2-24.1,2-36-0.5c-20.4-4.4-37.7-14.5-51.4-30.2c-12.7-14.5-20.4-31.4-22.9-50.6C0.9,247.9,0.4,246.5,0,245.1z"/>
	<g>
		<path class="st1" d="M0,245.1c0-5.6,0-11.1,0-16.7c0.2-0.5,0.6-0.9,0.6-1.4c0.4-2.7,0.6-5.5,1.2-8.3C6.5,195.2,18.1,175.8,37,161
			c3.3-2.6,6.8-4.9,10.3-7.3c0-0.2,0-0.4-0.1-0.6c-8.6-20.5-10.8-41.7-6.8-63.4C44.3,68.2,54,49.6,69.1,34
			C87.3,15.3,109.3,4.2,135.3,1c1.5-0.2,2.9-0.7,4.3-1c5.8,0,11.5,0,17.3,0c0.7,0.2,1.3,0.5,2,0.7c5.9,1.1,12,1.8,17.8,3.3
			c20.9,5.4,38.6,16.2,53.2,32.1c2.1,2.3,4.1,4.7,6.2,7.1c23.8-23.2,52-34,85-29.6c33,4.4,57.3,22.3,74.4,50.7
			c25.4-10.9,51.6-13.3,78.3-6.8c26.9,6.6,49,21,66.3,42.6c30.9,38.6,35.1,92.1,12.7,134.6c-12.6,23.9-31.1,42-55.5,53.7
			c-24.4,11.8-50,14.6-76.6,9.7c-11.9,20.2-28.7,34.5-51.1,41.5c-22.5,7.1-44.5,5.2-65.9-4.7c-0.4,0.8-0.8,1.5-1.1,2.2
			c-6.2,13.6-14.9,25.3-26.2,35c-14,12-30,19.8-48.2,23.1c-2.5,0.4-5,1-7.4,1.5c-7.5,0-15,0-22.5,0c-0.5-0.2-1-0.5-1.5-0.6
			c-4.3-0.9-8.7-1.4-13-2.6c-32.6-9.3-55.6-29.6-68.8-60.9c-0.3-0.8-0.7-1.5-1-2.2c-0.5,0-0.7,0-1,0c-0.6,0.1-1.1,0.2-1.7,0.3
			c-12,2.2-24.1,2-36-0.5c-20.4-4.4-37.7-14.5-51.4-30.2c-12.7-14.5-20.4-31.4-22.9-50.6C0.9,247.9,0.4,246.5,0,245.1z M281.1,233.6
			c2.6,1.5,5.1,1.7,7.6,1.9c10,0.4,16.1-3.5,19.5-12.8c1.2-3.2,2.1-6.6,2.7-10c2.4-13.1,4.7-26.3,7-39.4c0.2-1.1,0.5-2.2,0.7-3.4
			c3.3,0,6.4,0.1,9.5,0c0.8,0,2.1-0.4,2.2-0.8c0.7-2.5,1.4-5.1,1.2-8.1c-3.8,0-7.4,0-11.4,0c0.9-4,1.1-7.9,4.1-10.8
			c3.5-3.4,7.7-2.1,11.8-1.5c0.9-2.3,1.7-4.5,2.5-6.6c0.5-1.4,0.1-2.3-1.4-2.4c-2.8-0.3-5.5-0.8-8.3-0.8c-8.7,0.3-14.3,4.9-17.2,13
			c-0.8,2.3-1.2,4.6-1.8,7c-0.2,0.7-0.4,1.4-0.6,2.3c-2.7,0-5.3,0-8.1,0c-0.4,3-1.3,5.7-1.3,8.9c2.9,0,5.4,0,8,0
			c-0.1,1.1-0.2,1.7-0.3,2.4c-2.4,13.4-4.7,26.9-7.2,40.3c-0.6,3-1.6,5.9-2.7,8.8c-1.3,3.5-4.1,5.2-7.9,5c-1.8-0.1-3.6-0.4-5.6-0.7
			C283,228.3,282.1,230.9,281.1,233.6z M159.2,179.7c-4.1-0.1-8-0.4-11.8-0.4c-4.8,0-9.3,1.2-13.3,4c-5.7,4.1-7.5,9.8-6.5,16.5
			c1,6.4,4.9,10.3,11,11.9c1.9,0.5,3.9,0.9,5.9,1.1c8,0.7,15.7-0.8,23.4-2.5c1.7-0.4,2-1.3,2-2.9c-0.1-9.8,0-19.6,0-29.4
			c0-1.1-0.2-2.3-0.3-3.4c-1.1-8.1-5.5-12.8-13.5-14.3c-5.4-1-10.7-0.8-16,0.4c-2.8,0.6-5.5,1.7-8.2,2.7c-0.7,0.3-1.7,1.5-1.5,2
			c0.7,2.4,1.4,4.9,2.6,6.8c3.8-1.1,7.2-2.2,10.6-2.9c3.5-0.7,7.1-0.8,10.5,0.3c3,1,4.8,3.1,5.1,6.3
			C159.3,177.2,159.2,178.4,159.2,179.7z M245.4,189.2c1-4.9,0.7-9.2-0.3-13.6c-2-8.8-8.1-14.5-17-15.7
			c-12.6-1.6-22.7,4.4-26.2,16.1c-1.8,5.9-1.9,11.9-0.7,17.9c2,10.1,8.2,16.3,18.2,18.3c5.1,1,10.3,0.9,15.5,0
			c2.6-0.5,5.2-1.4,7.7-2.2c0.9-0.3,1.6-0.8,1.3-1.9c-0.8-2.3-1.7-4.6-2.5-7c-1.2,0.4-2,0.6-2.8,0.9c-4.9,1.7-9.9,2.1-15.1,1.4
			c-7.4-1-11.8-6.5-11.2-14.4C223.2,189.2,234.2,189.2,245.4,189.2z M504.5,201.1c-1.6,0.6-2.6,0.9-3.6,1.2
			c-5.6,1.6-11.3,2.2-17,0.6c-6-1.8-9.5-7.7-8.3-13.9c10.9,0,21.9,0,33,0c1-4.7,0.6-9.1-0.4-13.4c-2.1-8.9-8-14.5-17-15.7
			c-12.4-1.6-22.6,4.3-26.2,16.1c-1.5,5.1-1.9,10.4-1.1,15.7c1.7,12.3,9.1,19.7,21,20.8c4.7,0.4,9.6-0.1,14.3-0.5
			c2.2-0.2,4.4-1.3,6.6-2c1-0.3,1.4-1,1.1-2C506.2,205.9,505.4,203.6,504.5,201.1z M356.2,213c12,0,20.2-6.5,22.9-18.2
			c1.4-6,1.3-12-0.3-18c-2.5-9.5-9.4-15.6-19-16.9c-12.9-1.7-23.4,5.2-26.3,17.4c-1.3,5.6-1.4,11.2-0.3,16.8
			C335.7,206.2,344,213,356.2,213z M287.7,172.7c0.8-2,1.5-3.7,2.1-5.5c0.9-2.6,0.9-2.7-1.6-4c-6.4-3.3-13.2-4.1-20.2-3.3
			c-3.2,0.4-6.1,1.7-8.7,3.6c-6.9,5.1-8.8,18.8,2.1,24c2.8,1.3,5.9,2.2,8.9,3.3c2.7,1,5.5,1.7,8,3.1c4,2.1,4,7,0,9.2
			c-1.9,1-4.2,1.4-6.3,1.4c-5.1-0.1-9.8-1.7-14.1-4.4c-0.8-0.5-1.8-0.8-2.9-1.4c-0.8,2.2-1.4,4-2.1,5.8c-0.9,2.5-0.9,2.6,1.3,3.9
			c6.6,4,13.9,5.6,21.5,4.7c2.9-0.3,5.9-1.2,8.5-2.5c5.4-2.8,7.5-7.7,7.5-13.6c0-5.5-2.8-9.2-7.5-11.7c-1.7-0.9-3.5-1.7-5.3-2.3
			c-2.3-0.9-4.8-1.5-7.1-2.4c-1.9-0.7-3.8-1.5-5.4-2.6c-3.2-2.1-3.1-6.2,0.2-8c1.8-0.9,4-1.3,6-1.3c4.3,0.1,8.3,1.2,12.2,3
			C285.8,171.9,286.6,172.2,287.7,172.7z M117.5,172.7c0.7-2,1.4-3.7,2.1-5.5c0.9-2.6,0.9-2.7-1.6-4c-6.4-3.3-13.2-4.2-20.1-3.2
			c-2.3,0.3-4.7,1.2-6.7,2.3c-5.2,2.9-7.6,7.7-7.5,13.6c0.1,5.6,3.1,9.4,8,11.7c2.9,1.3,5.9,2.2,8.9,3.3c2.6,1,5.3,1.7,7.8,3
			c4,2.2,4,7-0.1,9.2c-1.8,0.9-4,1.4-6.1,1.4c-5.1,0-9.8-1.6-14.1-4.3c-0.9-0.5-1.8-1-3-1.7c-0.8,2.2-1.5,4.1-2.2,5.9
			c-0.9,2.5-1,2.7,1.3,3.9c2.9,1.4,5.9,3,9,3.8c6.6,1.7,13.3,2.1,19.7-0.8c5.7-2.6,8.5-7.2,8.8-13.4c0.3-6.1-2.7-10.2-8-12.8
			c-1.6-0.8-3.3-1.5-5-2.1c-2.2-0.8-4.6-1.4-6.8-2.3c-1.9-0.7-3.8-1.5-5.4-2.6c-3.2-2.1-3.1-6.2,0.2-8c1.7-0.9,3.8-1.4,5.8-1.3
			c4.4,0,8.5,1.2,12.5,3C115.6,171.9,116.4,172.2,117.5,172.7z M460.4,162.4c-0.9-0.4-1.5-0.7-2.1-0.9c-5.4-1.7-10.9-2.2-16.5-1.5
			c-9.5,1.2-16.1,6.4-19.3,15.5c-2.6,7.5-2.5,15.1,0.2,22.6c2.7,7.5,8,12.3,15.8,14c6.9,1.5,13.7,1,20.5-1.2c0.6-0.2,1.1-0.6,1.8-1
			c-1-2.8-1.6-5.5-3.2-8.1c-4.3,1.8-8.6,2.2-12.9,1.7c-4.9-0.5-8.9-2.8-10.9-7.4c-2.8-6.8-2.7-13.7,0.5-20.4
			c2.1-4.3,5.6-6.6,10.3-6.7c3.3-0.1,6.7,0.5,10,0.8c0.9,0.1,1.8,0.4,2.9,0.6C458.4,167.7,459.3,165.2,460.4,162.4z M191.4,211.7
			c0-1.2,0-2.2,0-3.3c0-21.7,0-43.4,0-65.1c0-0.3,0-0.6,0-0.9c0-2.7-0.1-2.8-2.7-2.8c-1.7,0-3.5,0-5.2,0c-2.8,0-2.9,0-2.9,2.9
			c0,22.2,0,44.3,0,66.5c0,0.8,0.1,1.7,0.2,2.6C184.3,211.7,187.6,211.7,191.4,211.7z M419.4,161.7c-3.8-1.3-7.3-1.7-10.8-1.2
			c-3.5,0.5-6.5,2.3-9.4,4.7c-0.2-1.7-0.3-2.9-0.4-4.1c-3.5,0-6.7,0-10,0c0,17,0,33.7,0,50.6c3.5,0,6.8,0,10.5,0c0-1.2,0-2.3,0-3.3
			c0-6.8,0-13.6,0-20.5c0-2.5,0.1-5,0.5-7.5c1.3-7.5,5.9-10.9,13.4-10.4c0.9,0.1,1.9,0.1,3.1,0.2
			C417.3,167.5,418.3,164.8,419.4,161.7z"/>
		<path class="st2" d="M159.3,188.5c0,3.8,0,7.3,0,10.8c0,1.2,0,2.5,0,3.9c-4.9,1-9.6,1.7-14.4,0.8c-4.3-0.8-6.5-3.2-6.7-7.1
			c-0.2-4.3,1.7-7.1,5.9-8.4C149.1,187,154.1,187.7,159.3,188.5z"/>
		<path class="st3" d="M235.1,180.9c-7.7,0-15.1,0-22.6,0c-0.7-6.3,4.5-12.1,11.1-12.4C231.8,168.3,235.4,174.9,235.1,180.9z"/>
		<path class="st3" d="M498.2,180.9c-7.7,0-15.3,0-22.8,0c0.8-8.1,5.6-12.8,12.5-12.3C494.3,169,498.4,173.8,498.2,180.9z"/>
		<path class="st2" d="M368.6,186.5c0.1,3.7-0.3,7.3-1.8,10.7c-2.1,4.8-5.4,6.9-10.9,6.9c-5.1,0-8.6-2.2-10.4-7.1
			c-2.6-7-2.6-14.1,0-21.1c1.8-5,5.3-7.1,10.7-7.1c5.4,0,8.7,2.2,10.7,7C368.3,179.3,368.7,182.9,368.6,186.5z"/>
	</g>
</g>
</svg>
