<?xml version="1.0" encoding="utf-8"?>
<!-- Generator: Adobe Illustrator 24.0.0, SVG Export Plug-In . SVG Version: 6.00 Build 0)  -->
<svg version="1.1" id="Layer_1" xmlns="http://www.w3.org/2000/svg" xmlns:xlink="http://www.w3.org/1999/xlink" x="0px" y="0px"
	 viewBox="0 0 587.7 89.5" style="enable-background:new 0 0 587.7 89.5;" xml:space="preserve">
<style type="text/css">
	.st0{fill-rule:evenodd;clip-rule:evenodd;fill:#293F41;}
	.st1{fill-rule:evenodd;clip-rule:evenodd;fill:#82B6A1;}
	.st2{fill:#293F41;}
</style>
<g>
	<path class="st0" d="M161,30.2c-5.7,0-10.5,2.1-14.4,5.1v-4.8h-13.2v51.3h13.8V49.1c1.8-2.7,6.6-6.3,12.3-6.3
		c2.1,0,3.9,0.3,5.4,0.9V30.5C163.7,30.2,162.5,30.2,161,30.2"/>
	<path class="st0" d="M41.5,66.2c3.6,3.3,8.7,5.1,14.1,5.1c3.6,0,6.6-1.8,6.6-4.2c0-7.8-24.6-5.1-24.6-21.6
		c0-9.9,9.6-15.9,19.5-15.9c6.6,0,13.8,2.4,17.4,5.1l-6.3,9.9c-2.7-1.8-6-3.6-9.9-3.6s-6.9,1.5-6.9,4.2c0,6.6,24.6,3.9,24.6,21.9
		C76.1,77,66.4,83,55.6,83c-7.2,0-14.4-2.4-20.4-6.9L41.5,66.2z"/>
	<path class="st0" d="M127.7,55.7c0-14.4-9.9-26.1-24-26.1c-15.3,0-24.9,12.6-24.9,26.7c0,16.2,11.4,26.7,26.7,26.7
		c7.8,0,15.9-3.3,21-9.3l-7.8-7.8c-2.4,2.7-7.2,6-12.9,6c-7.2,0-13.2-5.1-13.8-12.3h35.4C127.4,58.4,127.7,57.2,127.7,55.7
		 M92.6,49.7c0.6-4.8,5.4-9,10.8-9c5.7,0,9.6,4.5,10.2,9H92.6z"/>
	<polygon class="st0" points="197.7,62 211.8,30.5 225.9,30.5 202.5,81.8 192.9,81.8 169.4,30.5 183.8,30.5 	"/>
	<path class="st0" d="M237.6,6.4c4.8,0,9,3.9,9,8.7s-3.9,8.7-9,8.7c-5.1,0-9-3.9-9-8.7S232.5,6.4,237.6,6.4"/>
	<rect x="230.7" y="30.5" class="st0" width="13.8" height="51.3"/>
	<path class="st0" d="M300.9,71.3c-6,8.1-13.5,11.4-23.1,11.4c-15.9,0-27.3-12-27.3-26.7c0-15,12-26.7,27.6-26.7
		c8.7,0,16.8,4.2,21.6,10.2l-9.6,8.7c-2.7-3.6-6.9-6-11.7-6c-7.8,0-13.8,6.3-13.8,14.1c0,8.1,5.7,14.1,14.1,14.1
		c5.7,0,9.9-3.3,12.3-6.9L300.9,71.3z"/>
	<path class="st0" d="M350.8,73.7c-4.8,6-13.2,9.3-21,9.3C314.5,83,303,72.5,303,56.3c0-14.4,9.6-26.7,24.9-26.7
		c14.1,0,24,12,24,26.1c0,1.5,0,2.7-0.3,3.9h-35.4c0.6,7.2,6.6,12.3,13.8,12.3c5.7,0,10.5-3.3,12.9-6L350.8,73.7z M337.9,49.7
		c-0.3-4.5-4.5-9-10.2-9s-10.2,4.2-10.8,9H337.9z"/>
	<path class="st0" d="M357.4,81.8V30.5h13.2v4.2c3.9-3.3,8.7-5.1,14.4-5.1c7.2,0,13.5,3.3,17.7,8.4c3.3,3.9,5.4,9.3,5.4,18v26.1
		h-13.8V54.8c0-5.1-1.2-7.8-3-9.6c-1.8-1.8-4.5-3-7.8-3c-5.7,0-10.5,3.6-12.3,6.3v33.3H357.4L357.4,81.8z"/>
	<path class="st1" d="M443.3,29.6c-16.2,0-30,13.2-30,29.7c0,8.7,3.6,16.5,9.3,22.2c2.1,2.1,5.4,2.1,7.8,0.3
		c3.3-2.7,7.8-4.2,12.9-4.2s9.3,1.5,12.9,4.2c2.4,1.8,5.7,1.5,7.8-0.6c5.7-5.4,9.3-13.2,9.3-21.9C473,43.1,459.8,29.6,443.3,29.6
		 M443,74.6c-8.7,0-15-6.6-15-15s6-15,15-15c9,0,15,6.9,15,15S452,74.6,443,74.6"/>
	<polygon class="st0" points="500,81.8 489.8,81.8 469.4,30.5 483.2,30.5 494.3,59.9 505.4,30.5 516.8,30.5 527.6,59.9 538.7,30.5 
		552.6,30.5 532.1,81.8 521.9,81.8 511.1,52.7 	"/>
	<polygon class="st2" points="545.1,75.5 545.1,76.4 543.3,76.4 543.3,81.8 542.1,81.8 542.1,76.4 540.3,76.4 540.3,75.5 	"/>
	<polygon class="st2" points="549.3,79.4 551.7,75.5 552.6,75.5 552.6,81.8 551.4,81.8 551.4,78.2 549.6,80.9 548.7,80.9 
		547.2,78.2 547.2,81.8 546,81.8 546,75.5 546.9,75.5 	"/>
</g>
</svg>
