<?xml version="1.0" encoding="utf-8"?>
<!-- Generator: Adobe Illustrator 25.0.0, SVG Export Plug-In . SVG Version: 6.00 Build 0)  -->
<svg version="1.1" id="Layer_1" xmlns="http://www.w3.org/2000/svg" xmlns:xlink="http://www.w3.org/1999/xlink" x="0px" y="0px"
	 viewBox="0 0 399.1 160.7" style="enable-background:new 0 0 399.1 160.7;" xml:space="preserve">
<style type="text/css">
	.st0{fill:#F6A11F;}
	.st1{fill:#0A6DAE;}
</style>
<g>
	<path class="st0" d="M202.4,2.4c14.1-0.5,28.4,1.6,41.7,6.4c20.1,7,38,20,51.1,36.7c5.8,7.3,10.6,15.4,14.4,23.9
		c0.7,1.4,1.2,3,0.8,4.6c-0.4,2.7-2.8,4.9-5.4,5.1c-2.8,0.4-5.7-1.3-6.6-4C290.9,57.5,278,42.1,262,31.4c-9.9-6.6-21-11.5-32.7-14.2
		c-15-3.5-30.8-3.5-45.8,0c-21.4,4.9-41,17.2-54.8,34.3c-5.9,7.2-10.7,15.2-14.4,23.7c-0.8,2-2.6,3.5-4.7,3.9
		c-2,0.4-4.3-0.3-5.7-1.8c-1.7-1.7-2.2-4.4-1.4-6.6c10-23.7,28.6-43.7,51.5-55.6C169,7.4,185.6,3,202.4,2.4L202.4,2.4z"/>
	<path class="st1" d="M183.7,75.6c-0.1-1.2,1.1-2.2,2.2-2.2c1.5,0,3,0,4.5,0c1,0,2.3,0.7,2.3,1.9c0.1,13.8,0,27.6,0,41.4
		c5.6-6.2,11.2-12.4,16.8-18.6c1.1-1.1,2-2.7,3.7-2.9c2.3-0.1,4.6,0,7,0c0.9-0.1,1.9,0.7,1.6,1.7c-0.4,0.7-1,1.2-1.6,1.8
		c-6.1,6.1-12.2,12.1-18.2,18.2c5.8,6.7,11.6,13.4,17.4,20.1c0.7,1,1.7,1.8,2.3,2.8c0.5,0.8-0.3,1.8-1.2,1.9c-1.9,0.1-3.9,0-5.8,0
		c-1,0-2.1,0.1-3-0.4c-1-0.6-1.5-1.5-2.2-2.4c-5.6-7-11.2-14.1-16.8-21.2c-0.1,6.9,0,13.9,0,20.8c0,0.8,0.1,1.8-0.6,2.3
		c-1.1,1.1-2.8,0.7-4.1,0.8c-1.2,0-2.7,0.2-3.7-0.7c-0.6-0.4-0.7-1.2-0.7-1.8C183.7,117.9,183.7,96.7,183.7,75.6L183.7,75.6z"/>
	<path class="st1" d="M158.2,95c2.8-0.9,6-1.1,8.7,0.1c1,0.5,2.1,1.4,1.6,2.6c-0.4,1.5-0.8,3-1.3,4.5c-0.4,1.1-1.6,1.4-2.6,1.2
		c-2.3-0.4-4.6-1.2-7-1.1c-1.7,0-3.2,0.8-4.3,2c-1.8,1.8-2.8,4.3-3.2,6.8c-0.3,1.8-0.2,3.6-0.3,5.4c0,7.6,0,15.2,0,22.8
		c0.1,1.3-1.2,2.1-2.3,2.1c-1.6,0-3.1,0-4.6,0c-1.1-0.1-2.4-0.9-2.2-2.1c0-14.1,0-28.2,0-42.3c-0.1-1.4,1.5-2.2,2.7-2
		c1.5,0.1,3.6-0.5,4.6,1.1c0.8,1.8,1.1,3.7,1.8,5.5C151.9,98.8,154.7,96.2,158.2,95L158.2,95z"/>
	<path class="st1" d="M0,96.1c0.4-0.5,0.9-1,1.7-1c2.1,0,4.2-0.1,6.3,0c1.1,0,1.8,1,2,2c2.1,8.4,4.1,16.8,6.2,25.3
		c0.6,2.6,1.3,5.2,1.7,7.8c0.4,2.4,0.5,4.8,0.9,7.2c0.5-3.4,1-6.8,1.9-10.1c2.7-10,5.4-20.1,8.1-30.1c0.2-1.1,1.3-2,2.4-2
		c2.3-0.1,4.7,0,7,0c1.3-0.1,2.6,0.7,2.9,2c2,7.3,4,14.7,6,22c1.2,4.7,2.8,9.4,3.5,14.3c0.2,1.3,0.4,2.7,0.7,4
		c0.8-7.7,2.7-15.1,4.3-22.6c1.3-6,2.6-11.9,4-17.9c0.2-1.2,1.5-1.8,2.6-1.8c1.9,0,3.8-0.1,5.7,0c1.1,0,1.8,1.3,1.4,2.3
		c-3.8,14-7.6,28.1-11.4,42.1c-0.2,1.1-1.2,2-2.3,2c-2.9,0.1-5.9,0-8.8,0c-1.1,0.1-2.2-0.5-2.4-1.6c-2.6-9.6-5.2-19.3-7.8-29
		c-0.9-3.4-1.3-6.8-1.7-10.3c-0.5,3.1-0.7,6.2-1.5,9.2c-2.7,9.9-5.3,19.9-8,29.8c-0.3,1.6-2.1,1.9-3.5,1.8c-2.7-0.1-5.5,0.1-8.2-0.1
		c-1,0-1.7-0.8-1.9-1.7C7.8,125.9,4,111.9,0.1,98C0,97.3,0,96.7,0,96.1L0,96.1z"/>
	<path class="st1" d="M344.4,95.2c2,0,4,0,6,0c1.2,0,2.4,0.8,2.7,2c3.4,9,6.9,18,10.3,27c0.7,1.8,1.2,3.7,1.5,5.7
		c1.4-5.3,3.3-10.5,5-15.8c1.9-5.7,3.7-11.4,5.6-17.1c0.3-1,1.2-1.7,2.2-1.8c1.6-0.1,3.3,0,4.9-0.1c1,0,2.1-0.1,2.8,0.7
		c0.5,0.4,0.4,1.1,0.2,1.6c-5.5,15.7-11,31.4-16.5,47.1c-1,2.6-1.7,5.4-3.2,7.7c-2.2,3.6-5.8,6.2-9.7,7.6c-1.4,0.4-2.8,1.4-4.3,0.8
		c-1-0.3-1.4-1.4-2-2.2c-0.4-0.7-1.1-1.4-1-2.3c0.1-0.9,0.8-1.6,1.6-1.9c1.7-0.6,3.3-1.2,4.7-2.4c3.3-2.8,5.3-6.8,6-11
		c-0.5-1.8-1.5-3.5-2.2-5.3c-5.2-12.2-10.5-24.4-15.8-36.6c-0.3-0.8-0.8-1.6-0.9-2.4C342.5,95.6,343.6,95.2,344.4,95.2L344.4,95.2z"
		/>
	<path class="st1" d="M101,94.4c5.2-0.3,10.6,0.8,14.9,3.8c3.8,2.7,6.4,6.9,7.6,11.4c1.4,5.4,1.4,11.1,0.1,16.5
		c-1.2,5-4.1,9.7-8.5,12.5c-4.6,3.1-10.5,3.9-15.9,3.2c-4.6-0.6-9.2-2.6-12.4-6c-3.8-4-5.7-9.5-6.1-14.9c-0.5-6,0.4-12.4,3.8-17.5
		c2.5-3.9,6.4-6.7,10.8-8C97.1,94.8,99,94.5,101,94.4L101,94.4z M99.7,101.1c-2.9,0.5-5.5,2.3-6.9,4.9c-2.4,4.1-2.7,9.1-2.6,13.7
		c0.2,4.2,0.9,8.7,3.5,12.1c2,2.6,5.3,3.9,8.5,3.8c3.1,0.1,6.3-0.9,8.4-3.3c2.7-2.9,3.5-7,3.9-10.8c0.2-3.8,0.2-7.6-0.7-11.3
		c-0.8-3.1-2.4-6.2-5.2-7.9C106,100.8,102.7,100.6,99.7,101.1L99.7,101.1z"/>
	<path class="st1" d="M265.9,75c-0.1-1.1,1-1.8,2-1.9c1.5-0.1,3.1,0,4.6,0c1.2,0,2.5,0.9,2.3,2.2c0,21.3,0,42.6,0,63.9
		c0.1,1.1-1,2-2,2c-1.2,0.1-2.5,0.1-3.7,0c-0.9-0.1-1.7-0.6-2-1.4c-0.5-1.4-0.7-2.8-1.1-4.2c-1.7,2.3-3.9,4.3-6.6,5.4
		c-3.9,1.4-8.2,1.5-12.2,0.5c-4-1-7.5-3.7-9.4-7.3c-3-5.5-3.4-12.1-3.2-18.2c0.1-5.3,1.1-10.8,4.6-15c2.6-3.6,6.8-5.6,11.1-6.1
		c4-0.6,8.3,0.1,11.6,2.5c1.6,1.1,2.8,2.6,3.9,4.1C265.9,92.4,265.9,83.7,265.9,75L265.9,75z M253.7,100.8c-2.8,0.2-5.6,1.8-6.8,4.4
		c-2.5,4.8-2.5,10.4-2.4,15.6c0.2,3.4,0.6,7,2.2,10.1c1.1,2.1,3.1,3.7,5.4,4.3c3.6,0.9,7.8,0.1,10.3-2.7c2.4-2.8,3.2-6.6,3.6-10.1
		c0.3-4.1,0.3-8.2-0.7-12.2c-0.7-2.7-1.9-5.3-4-7.2C259.2,101.2,256.4,100.5,253.7,100.8L253.7,100.8z"/>
	<path class="st1" d="M305,95.3c4.1-1.1,8.5-1.2,12.6-0.3c3.8,0.9,7.5,3.1,9.8,6.3c2.5,3.3,3.8,7.3,4.3,11.4
		c0.5,3.1,0.3,6.3,0.3,9.4c0,5.7,0,11.4,0,17c0.1,0.7-0.4,1.3-0.9,1.7c-1,0.6-2.1,0.3-3.2,0.4c-1.2,0-2.8,0.1-3.4-1.1
		c-0.6-1.5-0.8-3.1-1.2-4.6c-1.6,1.9-3.3,3.9-5.6,5.1c-3.5,1.7-7.6,1.6-11.4,0.9c-4.6-0.9-8.9-3.6-11.5-7.6
		c-3.1-4.6-4.2-10.2-4.2-15.7c0-5.3,1-10.8,4-15.3C296.9,99.1,300.7,96.4,305,95.3L305,95.3z M308.9,101.1c-1.4,0.3-2.8,0.9-4,1.8
		c-2.3,1.8-3.4,4.6-4.1,7.4c-0.9,4.4-0.9,8.9-0.4,13.4c0.4,3.3,1.2,6.7,3.6,9.2c1.9,2,4.9,2.8,7.6,2.7c3,0.1,6-1,7.9-3.3
		c2.4-2.9,3.1-6.7,3.4-10.3c0.2-4.2,0.2-8.6-1-12.7c-0.8-2.6-2.1-5.1-4.5-6.6C315.1,100.8,311.9,100.6,308.9,101.1L308.9,101.1z"/>
	<path class="st1" d="M387.9,128.9c1.4-0.2,2.9-0.2,4.2,0.4c2.2,1,3.8,3.4,3.5,5.8c0.2,2.9-2.3,5.5-5.1,6c-3.2,0.7-6.6-1.6-7.2-4.8
		C382.5,133.2,384.7,129.6,387.9,128.9L387.9,128.9z M387.5,130.2c-2.3,0.9-3.8,3.6-3.2,6c0.6,2.9,3.9,4.8,6.7,3.8
		c2.6-0.8,4.2-3.7,3.4-6.3C393.7,130.7,390.3,129,387.5,130.2L387.5,130.2z"/>
	<path class="st1" d="M386.8,131.4c1.7,0.1,3.6-0.4,5.1,0.6c1.2,0.9,0.6,2.9-0.7,3.3c0.4,1.1,1,2,1.5,3c-0.6,0-1.3,0-1.9,0
		c-0.5-0.9-0.9-1.9-1.3-2.8c-0.3,0-0.5,0-0.8,0c0,0.9,0,1.9,0,2.8c-0.6,0-1.2,0-1.8,0C386.8,136,386.7,133.7,386.8,131.4
		L386.8,131.4z M388.5,132.5c0,0.7,0,1.3,0,2c0.6,0,1.2,0,1.8-0.2c0.5-0.2,0.5-0.9,0.3-1.4C390.1,132.4,389.2,132.6,388.5,132.5
		L388.5,132.5z"/>
</g>
</svg>
